<?xml version="1.0" encoding="UTF-8"?>
<!-- Generator: Adobe Illustrator 26.5.0, SVG Export Plug-In . SVG Version: 6.00 Build 0)  -->
<svg version="1.1" id="Layer_1" xmlns="http://www.w3.org/2000/svg" xmlns:xlink="http://www.w3.org/1999/xlink" x="0px" y="0px" width="801.5px" height="239.8px" viewBox="0 0 801.5 239.8" enable-background="new 0 0 801.5 239.8" xml:space="preserve">
<circle fill="#DA802E" cx="1084.4" cy="192.4" r="23.8"/>
<radialGradient id="SVGID_1_" cx="1317.5" cy="49.6" r="23.7263" gradientTransform="matrix(1 0 0 -1 0 242)" gradientUnits="userSpaceOnUse">
	<stop offset="0.1198" style="stop-color:#DB832E;stop-opacity:0.5"/>
	<stop offset="1" style="stop-color:#DB832E"/>
</radialGradient>
<circle fill="url(#SVGID_1_)" cx="1317.5" cy="192.4" r="23.8"/>
<radialGradient id="SVGID_00000088842803911232619270000006389899462024133804_" cx="1317.5" cy="-19.5" r="23.7603" gradientTransform="matrix(1 0 0 -1 0 242)" gradientUnits="userSpaceOnUse">
	<stop offset="0.1189" style="stop-color:#EABA87"/>
	<stop offset="0.2523" style="stop-color:#E7B179"/>
	<stop offset="0.9998" style="stop-color:#DA802E"/>
</radialGradient>
<circle fill="url(#SVGID_00000088842803911232619270000006389899462024133804_)" cx="1317.5" cy="261.5" r="23.8"/>
<circle fill="#1F71B7" cx="1139.1" cy="192.4" r="23.8"/>
<circle fill="#6BBCD4" cx="1195.1" cy="192.4" r="23.8"/>
<path fill="#1F71B7" d="M272.5,220.8v16.6h-10c-7.1,0-12.6-1.7-16.6-5.2s-6-9.1-6-17v-25.4h-7.8v-16.3h7.8v-15.6l19.6-4.8v20.4h12.8  v16.3h-12.8v25.7c0,1.9,0.5,3.3,1.4,4.1s2.4,1.3,4.6,1.3h7V220.8z M334.2,157.4v79.9h-19.6v-84.7L334.2,157.4z M72.9,236.8H53.3  l-32.8-49.6v49.6H1v-80.4h19.6l32.8,49.8v-49.8H73L72.9,236.8L72.9,236.8z M85.6,187.4c2.5-5,5.9-8.8,10.1-11.5c4.3-2.7,9-4,14.3-4  c4.5,0,8.5,0.9,11.9,2.7s6,4.2,7.8,7.2v-9h19.6v63.9h-19.6v-9c-1.9,3-4.6,5.4-8,7.2s-7.3,2.7-11.9,2.7c-5.2,0-9.9-1.4-14.2-4.1  c-4.3-2.7-7.7-6.6-10.1-11.6c-2.5-5-3.7-10.8-3.7-17.3C81.9,198.2,83.2,192.4,85.6,187.4z M125.7,193.3c-2.7-2.8-6-4.2-9.9-4.2  s-7.2,1.4-9.9,4.2s-4.1,6.6-4.1,11.5s1.4,8.8,4.1,11.6c2.7,2.9,6,4.3,9.9,4.3s7.2-1.4,9.9-4.2c2.7-2.8,4.1-6.7,4.1-11.6  S128.4,196.1,125.7,193.3z M222.8,172.9v63.9h-19.6v-8.7c-2,2.8-4.7,5.1-8.1,6.8c-3.4,1.7-7.2,2.6-11.3,2.6c-4.9,0-9.2-1.1-12.9-3.3  s-6.6-5.3-8.7-9.4c-2.1-4.1-3.1-9-3.1-14.5V173h19.5v34.7c0,4.3,1.1,7.6,3.3,10s5.2,3.6,8.9,3.6c3.8,0,6.8-1.2,9-3.6  c2.2-2.4,3.3-5.7,3.3-10V173h19.7V172.9z M302,172.9v63.9h-19.6v-63.9H302z M408.9,172.9v63.9h-19.6v-8.7c-2,2.8-4.7,5.1-8.1,6.8  s-7.2,2.6-11.3,2.6c-4.9,0-9.2-1.1-12.9-3.3c-3.7-2.2-6.6-5.3-8.7-9.4c-2.1-4.1-3.1-9-3.1-14.5V173h19.5v34.7c0,4.3,1.1,7.6,3.3,10  c2.2,2.4,5.2,3.6,8.9,3.6c3.8,0,6.8-1.2,9-3.6c2.2-2.4,3.3-5.7,3.3-10V173h19.7V172.9z M432.5,234.8c-4.3-1.9-7.8-4.5-10.3-7.8  s-3.9-7-4.2-11.2h19.4c0.2,2.2,1.3,4,3.1,5.4c1.8,1.4,4.1,2.1,6.8,2.1c2.4,0,4.3-0.5,5.7-1.4c1.3-1,2-2.2,2-3.7c0-1.8-1-3.2-2.9-4.1  c-1.9-0.9-5-1.9-9.3-2.9c-4.6-1.1-8.4-2.2-11.5-3.4s-5.7-3.1-7.9-5.6c-2.2-2.6-3.3-6-3.3-10.4c0-3.7,1-7,3-10s5-5.4,8.9-7.2  s8.6-2.6,14-2.6c8,0,14.3,2,19,6c4.6,4,7.3,9.2,8,15.8h-18.1c-0.3-2.2-1.3-4-2.9-5.3s-3.8-1.9-6.5-1.9c-2.3,0-4,0.4-5.3,1.3  c-1.2,0.9-1.8,2.1-1.8,3.6c0,1.8,1,3.2,2.9,4.1c1.9,0.9,5,1.8,9.1,2.7c4.7,1.2,8.6,2.4,11.6,3.6c3,1.2,5.6,3.1,7.8,5.7  c2.3,2.6,3.4,6.2,3.5,10.6c0,3.7-1.1,7.1-3.1,10c-2.1,2.9-5.1,5.3-9,6.9c-3.9,1.7-8.5,2.5-13.7,2.5  C441.8,237.7,436.8,236.8,432.5,234.8z"/>
<radialGradient id="SVGID_00000181787534916275807480000000483215449057623743_" cx="287.2848" cy="122.5106" r="118.5585" gradientTransform="matrix(1 0 0 -1 0 242)" gradientUnits="userSpaceOnUse">
	<stop offset="0.1189" style="stop-color:#EABA87"/>
	<stop offset="0.2523" style="stop-color:#E7B179"/>
	<stop offset="0.9998" style="stop-color:#DA802E"/>
</radialGradient>
<path id="SVGID_00000006686761959754567520000011296626929578058657_" fill="url(#SVGID_00000181787534916275807480000000483215449057623743_)" d="  M239.6,111.8c-15.6-2.9-53.1-9.5-75.3-8.6h-0.1h-0.1c-4.4,0.5-11.7,1.2-12.9,8.1c-0.9,8.5-3.4,22.6-3.3,36.2  c0.3,2.6,2.9,4.2,5.5,4.7c2.1,0.4,4.4,0,6.6-0.3c0.4-0.1,0.9-0.1,1.3-0.2c21.6-3.1,83.8-20.7,86.8-21.5c6.1-1.5,9.9-5.2,9.6-9.4  c-0.3-3.6-3.5-6.4-8.5-7.3L239.6,111.8z M369.8,122.4c-0.2,0-0.4-0.1-0.6-0.1c-9.5-1.7-37.8-2.7-39.4-2.8c-3.4-0.2-5.9,1.2-6.5,3.6  c-0.6,2.3,0.8,4.2,4,6c2.3,1.3,23.4,14.7,35.2,18h0.1h0.1c0.3,0.1,0.6,0.1,0.9,0.2c1.4,0.3,5.1,0.9,6.9-2.5v-0.1v-0.1  c1.9-4.3,4.7-12.5,4.7-17.6v-0.1v-0.1c-0.2-3.6-3.6-4.2-4.7-4.4C370.3,122.5,370,122.4,369.8,122.4 M267.4,115.1  c-2.4,12.8,6,25.2,18.8,27.6s25.2-6,27.6-18.8s-6-25.2-18.8-27.6h-0.1C282.1,93.9,269.9,102.3,267.4,115.1 M367.3,73  c-0.2,0.1-0.4,0.2-0.6,0.3c-10.3,4.4-38.3,24.2-40.8,25.9c-3.3,2.3-4.7,4.6-3.9,7.1c0.6,1.6,2,2.7,4,3.1c1.1,0.2,3.3,0,4.9-0.2  c2.1-0.3,29.9-3.6,43.6-7.9h0.1h0.1c2.2-0.9,6.4-2.4,6-6.8v-0.1c-0.1-0.6-0.2-1.2-0.3-2c-0.8-5.5-2.1-13.9-5-18.4l-0.1-0.1  c-0.8-1-1.8-1.7-2.9-1.9C370.5,71.7,368.8,72.4,367.3,73 M183.2,46c-2.8,3.6-14,17-17.7,26.3v0.1v0.1c-1.2,5.6,3.5,7.8,6.9,9.4  c0.3,0.2,0.7,0.3,1.1,0.5c17.4,8.4,69.3,20.9,72.9,21.8c1.9,0.5,5.9,1.3,6.8,1.5c4.2,0.8,7.7-0.4,9.2-3.1c1.9-3.3,0.3-7-4.2-11.2  c-2.7-2.5-35.7-36.7-56.8-49.8h-0.1h-0.1c-2.1-1.1-4.4-2.2-6.5-2.6c-2.9-0.5-5.4,0.2-7.3,2.3C187.4,41.2,186,42.4,183.2,46z   M335.2,32.9c-0.1,0.2-0.3,0.4-0.4,0.6c-7.6,10.4-24.3,49-25,50.7c-1.6,3.8-1.9,7.1,0.3,9c0.6,0.5,1.3,0.9,2.2,1  c2.1,0.4,4.5-0.5,6.7-2.5c1.5-1.3,27.9-23.3,38.9-35.6l0,0V56c1.7-2.1,4.7-6,1.9-9.9l-0.1-0.1c-0.6-0.7-1.3-1.6-2.1-2.6  c-3.9-4.9-9.3-11.6-14.4-14.1h-0.1H343c-0.4-0.2-0.8-0.3-1.2-0.4C338.5,28.2,336.6,30.9,335.2,32.9 M240.9,8  c-4.1,1.2-14.5,3.9-21.6,9.8h-0.1l0,0c-3.8,3.6-1.4,7.6,0.3,10.6c0.2,0.3,0.3,0.6,0.5,0.9c8.4,14.8,43.7,54.1,45.9,56.5  c2.5,2.7,4.3,4.3,6.6,4.8c1.2,0.2,2.4,0.1,3.5-0.4c3.2-1.5,3.8-5.1,2.7-10.5c-0.6-3-9.9-46-18.7-65.9v-0.1v-0.1  c-1.7-3.4-4.1-7.3-7.3-7.3C247.9,6.3,243.8,7.2,240.9,8z M285.1,4.2L285.1,4.2H285c-4.8,1.2-4.8,5.5-4.7,8.7c0,0.3,0,0.6,0,0.9  c-0.1,15.6,8,61.8,8.5,64.7c0.9,4.7,2.6,7.6,5.7,8.2c0.2,0,0.4,0.1,0.6,0.1c3.3,0.2,5.4-2.4,7.1-7.3c1-2.8,13.2-39.6,15.4-59.5v-0.1  v-0.1c0.1-3.3,0.5-8.7-4.9-10.6c0,0-2.3-0.8-5.5-1.8c-2.4-0.7-7.7-2-11.9-2.8C291.1,3.9,287.8,3.7,285.1,4.2"/>
<path fill="#6BBCD4" d="M497.9,234.7c-4.7-1.9-8.4-4.7-11.2-8.5c-2.8-3.7-4.3-8.2-4.4-13.5h20.8c0.3,3,1.3,5.2,3.1,6.8  c1.8,1.6,4,2.3,6.9,2.3c2.9,0,5.2-0.7,6.9-2s2.5-3.2,2.5-5.6c0-2-0.7-3.6-2-4.9c-1.3-1.3-3-2.4-4.9-3.2s-4.7-1.8-8.3-2.9  c-5.2-1.6-9.4-3.2-12.7-4.8s-6.1-4-8.5-7.1s-3.6-7.2-3.6-12.3c0-7.5,2.7-13.3,8.1-17.6c5.4-4.2,12.5-6.4,21.2-6.4  c8.9,0,16,2.1,21.4,6.4c5.4,4.2,8.3,10.1,8.7,17.7h-21.2c-0.2-2.6-1.1-4.6-2.9-6.1c-1.8-1.5-4-2.2-6.8-2.2c-2.4,0-4.3,0.6-5.7,1.9  s-2.2,3.1-2.2,5.4c0,2.6,1.2,4.6,3.7,6.1c2.4,1.5,6.3,3,11.5,4.7c5.2,1.8,9.4,3.4,12.7,5c3.2,1.6,6,3.9,8.4,7s3.6,7,3.6,11.8  c0,4.6-1.2,8.7-3.5,12.5c-2.3,3.7-5.7,6.7-10.1,8.9c-4.4,2.2-9.7,3.3-15.7,3.3C507.9,237.6,502.6,236.6,497.9,234.7z M565.7,233.7  c-5-2.7-8.9-6.5-11.8-11.5c-2.9-5-4.3-10.8-4.3-17.4c0-6.6,1.4-12.3,4.4-17.3c2.9-5,6.9-8.8,11.9-11.5s10.7-4,16.9-4  c6.3,0,11.9,1.3,16.9,4s9,6.5,11.9,11.5s4.4,10.8,4.4,17.3c0,6.6-1.5,12.3-4.4,17.3s-6.9,8.8-12,11.5s-10.7,4-17,4  S570.7,236.4,565.7,233.7z M592.2,216.6c2.6-2.7,4-6.7,4-11.8s-1.3-9-3.8-11.8c-2.6-2.7-5.7-4.1-9.4-4.1c-3.8,0-7,1.4-9.5,4.1  c-2.5,2.7-3.8,6.7-3.8,11.9c0,5.1,1.2,9,3.7,11.8c2.5,2.7,5.6,4.1,9.3,4.1S589.5,219.4,592.2,216.6z M644.7,152.1v84.7h-19.6v-84.7  H644.7z M657.8,187.4c2.5-5,5.9-8.8,10.1-11.5c4.3-2.7,9-4,14.3-4c4.5,0,8.5,0.9,11.9,2.7s6,4.2,7.8,7.2v-9h19.6v63.9h-19.6v-9  c-1.9,3-4.6,5.4-8,7.2s-7.3,2.7-11.9,2.7c-5.2,0-9.9-1.4-14.2-4.1c-4.3-2.7-7.7-6.6-10.1-11.6c-2.5-5-3.7-10.8-3.7-17.3  C654.1,198.2,655.3,192.4,657.8,187.4z M697.9,193.3c-2.7-2.8-6-4.2-9.9-4.2s-7.2,1.4-9.9,4.2s-4.1,6.6-4.1,11.5s1.4,8.8,4.1,11.6  c2.7,2.9,6,4.3,9.9,4.3s7.2-1.4,9.9-4.2s4.1-6.7,4.1-11.6C701.9,200,700.6,196.1,697.9,193.3z M762.3,175.2c3.4-2,7.3-3,11.5-3v20.7  h-5.4c-4.9,0-8.6,1.1-11,3.1c-2.4,2.1-3.7,5.8-3.7,11.1v29.7h-19.6v-63.9h19.6v10.6C756,180,758.9,177.3,762.3,175.2z M796.9,172.7  c1.3,0.7,2.3,1.8,3,3.1s1.1,2.8,1.1,4.4c0,1.6-0.4,3.1-1.1,4.4c-0.7,1.3-1.7,2.3-3,3.1c-1.3,0.7-2.7,1.1-4.4,1.1  c-1.6,0-3.1-0.4-4.4-1.1c-1.3-0.7-2.3-1.8-3-3.1s-1.1-2.8-1.1-4.4c0-1.6,0.4-3.1,1.1-4.4c0.7-1.3,1.7-2.4,3-3.1  c1.3-0.7,2.8-1.1,4.4-1.1C794.2,171.6,795.6,172,796.9,172.7z M797.6,185.5c1.3-1.4,1.9-3.1,1.9-5.2s-0.6-3.8-1.9-5.2  c-1.3-1.4-3-2-5-2c-2.1,0-3.8,0.7-5.1,2c-1.3,1.4-1.9,3.1-1.9,5.2s0.6,3.8,1.9,5.2c1.3,1.4,3,2,5.1,2  C794.6,187.5,796.3,186.8,797.6,185.5z M795.7,180.2c-0.4,0.5-1,0.8-1.7,0.9l2.6,3.7h-2.2l-2.4-3.7h-1v3.7h-1.9v-9.3h4  c0.9,0,1.7,0.3,2.3,0.8s0.8,1.2,0.8,2C796.3,179.1,796.1,179.7,795.7,180.2z M791,179.6h2c0.4,0,0.7-0.1,1-0.3s0.4-0.5,0.4-0.9  s-0.1-0.7-0.4-0.9c-0.3-0.2-0.6-0.3-1-0.3h-2V179.6z"/>
</svg>